REM DIRINDEX 1\2,1\3,1\4,1\5
REM DIRNAME cjc044,folder01,folder02,folder03,folder04
TITLE ""
FILE "1800_134.mp3" MP3
  TRACK 01 AUDIO
    TITLE "2:cjc044_4005"
    INDEX 01 00:00:00
  TRACK 02 AUDIO
    TITLE "0:"
    INDEX 01 00:00:68
  TRACK 03 AUDIO
    TITLE "3:cjc044_4006"
    INDEX 01 00:01:54
  TRACK 04 AUDIO
    TITLE "0:"
    INDEX 01 00:02:65
  TRACK 05 AUDIO
    TITLE "4:cjc044_4007"
    INDEX 01 00:03:45
  TRACK 06 AUDIO
    TITLE "0:"
    INDEX 01 00:04:44
  TRACK 07 AUDIO
    TITLE "5:cjc044_4008"
    INDEX 01 00:05:32
  TRACK 08 AUDIO
    TITLE "0:"
    INDEX 01 00:08:19
  TRACK 09 AUDIO
    TITLE "2:cjc044_4009"
    INDEX 01 00:10:04
  TRACK 10 AUDIO
    TITLE "0:"
    INDEX 01 00:11:29
  TRACK 11 AUDIO
    TITLE "3:cjc044_4010"
    INDEX 01 00:12:09
  TRACK 12 AUDIO
    TITLE "0:"
    INDEX 01 00:14:17
  TRACK 13 AUDIO
    TITLE "4:cjc044_4011"
    INDEX 01 00:15:01
  TRACK 14 AUDIO
    TITLE "0:"
    INDEX 01 00:16:26
  TRACK 15 AUDIO
    TITLE "5:cjc044_4012"
    INDEX 01 00:17:10
  TRACK 16 AUDIO
    TITLE "0:"
    INDEX 01 00:20:14
  TRACK 17 AUDIO
    TITLE "2:cjc044_4013"
    INDEX 01 00:21:70
  TRACK 18 AUDIO
    TITLE "0:"
    INDEX 01 00:23:06
  TRACK 19 AUDIO
    TITLE "3:cjc044_4014"
    INDEX 01 00:23:67
  TRACK 20 AUDIO
    TITLE "0:"
    INDEX 01 00:25:19
  TRACK 21 AUDIO
    TITLE "4:cjc044_4015"
    INDEX 01 00:26:05
  TRACK 22 AUDIO
    TITLE "0:"
    INDEX 01 00:27:14
  TRACK 23 AUDIO
    TITLE "5:cjc044_4016"
    INDEX 01 00:28:02
  TRACK 24 AUDIO
    TITLE "0:"
    INDEX 01 00:30:71
  TRACK 25 AUDIO
    TITLE "2:cjc044_4017"
    INDEX 01 00:32:60
  TRACK 26 AUDIO
    TITLE "0:"
    INDEX 01 00:33:68
  TRACK 27 AUDIO
    TITLE "3:cjc044_4018"
    INDEX 01 00:34:55
  TRACK 28 AUDIO
    TITLE "0:"
    INDEX 01 00:35:59
  TRACK 29 AUDIO
    TITLE "4:cjc044_4019"
    INDEX 01 00:36:42
  TRACK 30 AUDIO
    TITLE "0:"
    INDEX 01 00:37:46
  TRACK 31 AUDIO
    TITLE "5:cjc044_4020"
    INDEX 01 00:38:33
  TRACK 32 AUDIO
    TITLE "0:"
    INDEX 01 00:41:28
  TRACK 33 AUDIO
    TITLE "2:cjc044_4021"
    INDEX 01 00:43:13
  TRACK 34 AUDIO
    TITLE "0:"
    INDEX 01 00:44:38
  TRACK 35 AUDIO
    TITLE "3:cjc044_4022"
    INDEX 01 00:45:20
  TRACK 36 AUDIO
    TITLE "0:"
    INDEX 01 00:46:19
  TRACK 37 AUDIO
    TITLE "4:cjc044_4023"
    INDEX 01 00:47:07
  TRACK 38 AUDIO
    TITLE "0:"
    INDEX 01 00:48:32
  TRACK 39 AUDIO
    TITLE "5:cjc044_4024"
    INDEX 01 00:49:16
  TRACK 40 AUDIO
    TITLE "0:"
    INDEX 01 00:52:65
  TRACK 41 AUDIO
    TITLE "2:cjc044_4025"
    INDEX 01 00:54:54
  TRACK 42 AUDIO
    TITLE "0:"
    INDEX 01 00:55:55
  TRACK 43 AUDIO
    TITLE "3:cjc044_4026"
    INDEX 01 00:56:43
  TRACK 44 AUDIO
    TITLE "0:"
    INDEX 01 00:57:52
  TRACK 45 AUDIO
    TITLE "4:cjc044_4027"
    INDEX 01 00:58:34
  TRACK 46 AUDIO
    TITLE "0:"
    INDEX 01 00:59:38
  TRACK 47 AUDIO
    TITLE "5:cjc044_4028"
    INDEX 01 01:00:23
  TRACK 48 AUDIO
    TITLE "0:"
    INDEX 01 01:03:65
  TRACK 49 AUDIO
    TITLE "2:cjc044_4029"
    INDEX 01 01:05:52
  TRACK 50 AUDIO
    TITLE "0:"
    INDEX 01 01:06:53
  TRACK 51 AUDIO
    TITLE "3:cjc044_4030"
    INDEX 01 01:07:37
  TRACK 52 AUDIO
    TITLE "0:"
    INDEX 01 01:08:50
  TRACK 53 AUDIO
    TITLE "4:cjc044_4031"
    INDEX 01 01:09:38
  TRACK 54 AUDIO
    TITLE "0:"
    INDEX 01 01:10:41
  TRACK 55 AUDIO
    TITLE "5:cjc044_4032"
    INDEX 01 01:11:21
  TRACK 56 AUDIO
    TITLE "0:"
    INDEX 01 01:14:35
  TRACK 57 AUDIO
    TITLE "2:cjc044_4033"
    INDEX 01 01:16:24
  TRACK 58 AUDIO
    TITLE "0:"
    INDEX 01 01:17:35
  TRACK 59 AUDIO
    TITLE "3:cjc044_4034"
    INDEX 01 01:18:17
  TRACK 60 AUDIO
    TITLE "0:"
    INDEX 01 01:19:50
  TRACK 61 AUDIO
    TITLE "4:cjc044_4035"
    INDEX 01 01:20:36
  TRACK 62 AUDIO
    TITLE "0:"
    INDEX 01 01:21:47
  TRACK 63 AUDIO
    TITLE "5:cjc044_4036"
    INDEX 01 01:22:21
  TRACK 64 AUDIO
    TITLE "0:"
    INDEX 01 01:25:23
  TRACK 65 AUDIO
    TITLE "2:cjc044_4037"
    INDEX 01 01:27:10
  TRACK 66 AUDIO
    TITLE "0:"
    INDEX 01 01:28:08
  TRACK 67 AUDIO
    TITLE "3:cjc044_4038"
    INDEX 01 01:28:67
  TRACK 68 AUDIO
    TITLE "0:"
    INDEX 01 01:29:68
  TRACK 69 AUDIO
    TITLE "4:cjc044_4039"
    INDEX 01 01:30:48
  TRACK 70 AUDIO
    TITLE "0:"
    INDEX 01 01:31:47
  TRACK 71 AUDIO
    TITLE "5:cjc044_4040"
    INDEX 01 01:32:23
  TRACK 72 AUDIO
    TITLE "0:"
    INDEX 01 01:35:31
  TRACK 73 AUDIO
    TITLE "2:cjc044_4041"
    INDEX 01 01:37:22
  TRACK 74 AUDIO
    TITLE "0:"
    INDEX 01 01:38:32
  TRACK 75 AUDIO
    TITLE "3:cjc044_4042"
    INDEX 01 01:39:15
  TRACK 76 AUDIO
    TITLE "0:"
    INDEX 01 01:40:23
  TRACK 77 AUDIO
    TITLE "4:cjc044_4043"
    INDEX 01 01:41:01
  TRACK 78 AUDIO
    TITLE "0:"
    INDEX 01 01:42:08
  TRACK 79 AUDIO
    TITLE "5:cjc044_4044"
    INDEX 01 01:42:69
  TRACK 80 AUDIO
    TITLE "0:"
    INDEX 01 01:46:19
